<svg xmlns="http://www.w3.org/2000/svg" viewBox="0 0 800 520">
  <defs><linearGradient id="g" x1="0" x2="1"><stop stop-color="#ffe0ec"/><stop offset="1" stop-color="#e7ddff"/></linearGradient></defs>
  <rect width="800" height="520" rx="44" fill="url(#g)"/>
  <circle cx="610" cy="100" r="80" fill="#fff" opacity=".55"/>
  <circle cx="145" cy="410" r="105" fill="#fff" opacity=".45"/>
  <g transform="translate(350 115)" stroke="#423944" stroke-width="18" stroke-linecap="round" stroke-linejoin="round" fill="none">
    <circle cx="50" cy="30" r="28" fill="#423944" stroke="none"/>
    <path d="M50 65 L50 190"/>
    <path d="M50 95 C15 125 0 150 -15 185"/>
    <path d="M50 95 C95 125 115 150 125 185"/>
    <path d="M50 190 C15 235 5 285 -10 340"/>
    <path d="M50 190 C95 235 110 285 125 340"/>
  </g>
  <g transform="translate(258 285)"><rect x="0" y="0" width="78" height="48" rx="18" fill="#8f7cff"/><rect x="206" y="0" width="78" height="48" rx="18" fill="#f68fbd"/></g>
  <text x="400" y="468" text-anchor="middle" font-family="Arial, sans-serif" font-size="36" font-weight="800" fill="#423944">Full Body Circuit</text>
</svg>